<?xml version="1.0" standalone="no"?>
<!DOCTYPE svg PUBLIC "-//W3C//DTD SVG 20010904//EN"
 "http://www.w3.org/TR/2001/REC-SVG-20010904/DTD/svg10.dtd">
<svg version="1.0" xmlns="http://www.w3.org/2000/svg"
 width="700.000000pt" height="700.000000pt" viewBox="0 0 700.000000 700.000000"
 preserveAspectRatio="xMidYMid meet">
<metadata>
Created by potrace 1.11, written by Peter Selinger 2001-2013
</metadata>
<g transform="translate(0.000000,700.000000) scale(0.100000,-0.100000)"
fill="#000000" stroke="none">
<path d="M3307 6884 c-1 -2 -39 -6 -82 -9 -111 -7 -275 -32 -455 -69 -118 -24
-410 -113 -495 -151 -16 -7 -75 -33 -130 -56 -108 -47 -290 -139 -360 -183
-335 -211 -517 -359 -769 -626 -164 -175 -283 -337 -466 -640 -26 -43 -143
-288 -178 -370 -64 -156 -157 -456 -178 -577 -4 -25 -8 -45 -22 -118 -6 -27
-13 -72 -16 -100 -4 -27 -9 -66 -11 -85 -26 -186 -26 -647 -1 -800 3 -14 7
-46 10 -71 49 -389 202 -838 409 -1199 83 -145 240 -377 302 -446 5 -7 32 -38
60 -70 192 -227 421 -435 655 -596 428 -295 906 -488 1400 -563 205 -31 310
-39 520 -39 159 0 343 8 395 18 11 2 45 7 75 11 30 3 69 9 85 12 17 3 39 7 50
8 19 3 93 19 140 29 385 84 783 253 1120 475 70 46 216 150 225 160 3 3 28 24
55 46 128 102 354 325 461 455 279 338 475 686 608 1079 37 106 91 300 101
360 3 19 8 38 10 41 3 4 7 25 10 46 3 22 10 62 15 89 5 28 12 75 16 105 3 30
8 64 10 75 22 109 21 602 -1 750 -2 17 -9 66 -15 110 -48 347 -163 713 -330
1044 -235 469 -616 912 -1055 1227 -433 311 -938 515 -1473 595 -35 5 -82 11
-105 14 -23 3 -64 7 -92 11 -52 6 -492 13 -498 8z m-36 -488 c0 -6 1 -1314 1
-2906 l1 -2895 -24 1 c-64 3 -247 28 -319 44 -293 66 -491 135 -724 252 -66
34 -131 66 -143 72 -13 6 -23 14 -23 19 0 4 -5 7 -10 7 -19 0 -316 201 -340
229 -3 4 -40 35 -83 71 -281 234 -560 597 -726 945 -103 215 -199 499 -236
700 -15 85 -36 237 -43 313 -13 164 -7 502 12 622 3 14 10 59 16 100 92 589
376 1144 809 1581 301 303 634 521 1034 676 178 69 462 142 613 158 34 4 76
10 93 13 53 11 91 10 92 -2z m604 -2 c338 -43 641 -137 950 -294 213 -108 452
-267 594 -395 55 -50 254 -248 286 -285 407 -474 643 -1021 709 -1645 l4 -40
-1334 0 c-734 0 -1335 2 -1335 5 -1 3 -2 605 -3 1338 l-2 1333 46 -6 c25 -3
63 -8 85 -11z m2540 -3144 c-2 -43 -18 -173 -31 -244 -9 -45 -18 -94 -20 -111
-20 -113 -92 -341 -159 -506 -112 -275 -327 -620 -509 -818 -133 -145 -260
-263 -392 -366 -446 -350 -1006 -571 -1543 -609 -15 -1 -16 122 -17 1329 0
732 0 1332 2 1335 1 3 603 6 1336 5 1178 0 1333 -2 1333 -15z"/>
</g>
</svg>
