<?xml version="1.0" encoding="utf-8"?>
<!-- Generator: Adobe Illustrator 19.1.0, SVG Export Plug-In . SVG Version: 6.00 Build 0)  -->
<svg version="1.1" id="Layer_1" xmlns="http://www.w3.org/2000/svg" xmlns:xlink="http://www.w3.org/1999/xlink" x="0px" y="0px"
	 viewBox="0 0 500 500" style="enable-background:new 0 0 500 500;" xml:space="preserve">
<style type="text/css">
	.st0{fill:#EEAD00;}
</style>
<path class="st0" d="M250.6,8C117.2,8,8.6,116.6,8.6,250s108.6,242,242,242c133.4,0,242-108.6,242-242S384.1,8,250.6,8z
	 M458.4,233.2h-191v-191C369,50.4,450.2,131.6,458.4,233.2z M42.2,250c0-109.3,84.5-199.2,191.6-207.7V250c0,0,0,0,0,0s0,0,0,0
	v207.7C126.7,449.2,42.2,359.3,42.2,250z M267.4,457.7v-191h191C450.2,368.3,369,449.6,267.4,457.7z"/>
</svg>
