<?xml version="1.0" encoding="utf-8"?>
<!-- Generator: Adobe Illustrator 19.1.0, SVG Export Plug-In . SVG Version: 6.00 Build 0)  -->
<svg version="1.1" id="Layer_1" xmlns="http://www.w3.org/2000/svg" xmlns:xlink="http://www.w3.org/1999/xlink" x="0px" y="0px"
	 viewBox="0 0 250 250" style="enable-background:new 0 0 250 250;" xml:space="preserve">
<style type="text/css">
	.st0{fill:#F6F6F6;}
	.st1{fill:none;stroke:#001FFF;stroke-width:7;stroke-linecap:round;stroke-linejoin:round;stroke-miterlimit:10;}
	.st2{fill:#FFFFFF;stroke:#001FFF;stroke-width:7;stroke-linecap:round;stroke-linejoin:round;stroke-miterlimit:10;}
</style>
<circle class="st0" cx="369.4" cy="126.9" r="58.6"/>
<rect x="343.3" y="69.7" transform="matrix(1 -1.037212e-03 1.037212e-03 1 -0.1272 0.4113)" class="st1" width="106.3" height="106.3"/>
<circle class="st0" cx="102.4" cy="126.9" r="58.6"/>
<circle class="st0" cx="-178.1" cy="126.9" r="58.6"/>
<circle class="st0" cx="634.3" cy="126.9" r="58.6"/>
<circle class="st0" cx="900.4" cy="126.9" r="58.6"/>
<path class="st1" d="M-143.2,120.4c0,0,2.4,14-2.9,30.9c-6,19.1-18.5,29.2-24.1,33"/>
<path class="st1" d="M-158.1,133.8c0.6-6.5-0.1-10.9-0.1-11c-1.4-8.1,4.2-16,12.4-17.4c2.4-0.4,4.9-0.2,7.1,0.5
	c5.4,1.7,9.4,6.3,10.4,11.9c0.3,1.8,2.9,18.2-3.4,38.1c-4.9,15.5-13.2,26.3-20.5,33.3"/>
<path class="st1" d="M-184.4,175.9c0,0,3-1.8,4.6-2.9c1.6-1.1,13.4-8.2,19.2-26.4c0.5-1.4,0.8-2.8,1.2-4.2"/>
<path class="st1" d="M-112.6,136.9c-0.5,6.9-1.9,14.9-4.6,23.5c-3.6,11.3-8.6,20.4-14,27.8 M-175.8,144.2c0.2-0.7,0.5-1.3,0.7-2.1
	c2.7-8.5,2-16.1,1.9-17.1c-1.3-7.8,0.6-15.7,5.2-22.2c4.7-6.6,11.7-11,19.6-12.4c4.8-0.8,9.7-0.5,14.3,1
	c10.9,3.4,18.9,12.6,20.8,23.8c0.3,1.6,0.9,6.1,1,12.6 M-195.2,165.3c0,0,6.3-4.3,8.1-5.9c1.1-1,4.2-3.1,7.2-7.4"/>
<path class="st1" d="M-100.9,158.7c-0.5,2.1-1.1,4.2-1.8,6.3c-1.5,4.7-3.2,9.1-5.1,13.2 M-121.5,80.4c12.1,6.6,20.7,18.3,23.1,32.3
	c0.8,4.7,2.7,19-0.7,37.5 M-186.7,106.7c1.4-4.5,3.5-8.7,6.3-12.7c7-9.9,17.5-16.5,29.4-18.5c7.2-1.2,14.6-0.7,21.4,1.5
	 M-203.4,152.1c0,0,6.6-4.5,8.3-5.9c1.4-1.2,3.8-3.3,5.5-8.6c1.6-5,1.3-9.7,1.3-10.7c-0.6-3.9-0.7-7.8-0.2-11.7"/>
<path class="st1" d="M-88.2,92c5.5,9.6,8.7,20.7,8.7,32.5c0,11.9-3.2,23-8.7,32.6"/>
<path class="st1" d="M-181.4,70.9c10.5-7.2,23.2-11.4,36.8-11.4c20.3,0,38.5,9.3,50.4,23.9"/>
<path class="st1" d="M-208.2,137.6c-0.9-4.2-1.3-8.6-1.3-13.1c0-18.2,7.5-34.6,19.5-46.4"/>
<g>
	<circle class="st1" cx="902.6" cy="122.6" r="29.4"/>
	<circle class="st1" cx="981.3" cy="122.6" r="29.4"/>
	<path class="st1" d="M932,120.7c0,0,2.5-7.1,9.5-7.1c6.9,0,10.5,7.1,10.5,7.1"/>
	<path class="st1" d="M864.9,117.6h30c0,0,9.9,1.3,9.9,9.9"/>
	<path class="st1" d="M1018.7,117.6h-30c0,0-9.9,1.3-9.9,9.9"/>
</g>
<g>
	<path class="st1" d="M142.5,68.8v110.7c0,0-1.3,11.4,11.7,11.4s21.2-19.5,21.2-19.5s15.3-0.3,15.3-16.4c0,0,0-9.3,4.8-14.1
		c0,0,14.6-20.9-3.8-31.8c0,0,13.5-18.4-8.9-30.5c0,0,1.6-16.8-19.9-12.2c0,0-1.3-8.4-11.1-8.4C146.5,58.1,142.5,62.2,142.5,68.8z"
		/>
	<path class="st1" d="M154.9,153.2c0,0,18-2.5,20.6,18.3"/>
	<path class="st1" d="M156.4,170.1c0,0,11.5-2.3,11.5-13.5"/>
	<path class="st1" d="M178.7,145.3c0,0,12.5-0.4,12.5,5.5"/>
	<path class="st1" d="M160.6,138.1c0,0-1.3-22,22.4-22"/>
	<path class="st1" d="M154.3,116.1c0,0,11.5-0.2,11.5,6.6"/>
	<path class="st1" d="M156.3,95.4c0,0,9-1.4,9-10.2"/>
	<path class="st1" d="M174.5,88.4c0,0-22.2-1.8-11.9-23.6"/>
</g>
<g>
	<path class="st1" d="M127.8,68.8v110.7c0,0,1.3,11.4-11.7,11.4s-21.2-19.5-21.2-19.5s-15.3-0.3-15.3-16.4c0,0,0-9.3-4.8-14.1
		c0,0-14.6-20.9,3.8-31.8c0,0-13.5-18.4,8.9-30.5c0,0-1.6-16.8,19.9-12.2c0,0,1.3-8.4,11.1-8.4C123.8,58.1,127.8,62.2,127.8,68.8z"
		/>
	<path class="st1" d="M115.5,153.2c0,0-18-2.5-20.6,18.3"/>
	<path class="st1" d="M113.9,170.1c0,0-11.5-2.3-11.5-13.5"/>
	<path class="st1" d="M91.7,145.3c0,0-12.5-0.4-12.5,5.5"/>
	<path class="st1" d="M109.7,138.1c0,0,1.3-22-22.4-22"/>
	<path class="st1" d="M116,116.1c0,0-11.5-0.2-11.5,6.6"/>
	<path class="st1" d="M114.1,95.4c0,0-9-1.4-9-10.2"/>
	<path class="st1" d="M95.9,88.4c0,0,22.2-1.8,11.9-23.6"/>
</g>
<path class="st1" d="M701.2,58.3h-68c-17.8,0-32.4,14.6-32.4,32.4v68c0,17.8,14.6,32.4,32.4,32.4h68c17.8,0,32.4-14.6,32.4-32.4v-68
	C733.5,72.9,719,58.3,701.2,58.3z"/>
<circle class="st1" cx="667.2" cy="124.6" r="24.5"/>
<circle class="st1" cx="667.2" cy="124.6" r="55.9"/>
<line class="st1" x1="610.9" y1="67.3" x2="723.5" y2="182"/>
<line class="st1" x1="723.5" y1="67.3" x2="610.8" y2="181.9"/>
<line class="st1" x1="667.8" y1="191" x2="667.8" y2="58"/>
<line class="st1" x1="600.9" y1="122" x2="733.5" y2="127"/>
<rect x="438" y="163.3" transform="matrix(1 -1.037212e-03 1.037212e-03 1 -0.1812 0.4665)" class="st2" width="23.2" height="23.2"/>
<rect x="437.9" y="58.2" transform="matrix(1 -1.037212e-03 1.037212e-03 1 -7.221307e-02 0.4663)" class="st2" width="23.2" height="23.2"/>
<rect x="332.1" y="163.4" transform="matrix(1 -1.037212e-03 1.037212e-03 1 -0.1814 0.3567)" class="st2" width="23.2" height="23.2"/>
<rect x="332" y="58.3" transform="matrix(1 -1.037212e-03 1.037212e-03 1 -7.238390e-02 0.3565)" class="st2" width="23.2" height="23.2"/>
</svg>
